<svg width="16" height="16" viewBox="0 0 16 16" fill="none" xmlns="http://www.w3.org/2000/svg">
<g clip-path="url(#clip0_984_4923)">
<path d="M8.74552 10.6564C8.74552 11.0452 8.43033 11.3604 8.04152 11.3604C7.65272 11.3604 7.33752 11.0452 7.33752 10.6564C7.33752 10.2676 7.65272 9.95239 8.04152 9.95239C8.43033 9.95239 8.74552 10.2676 8.74552 10.6564Z" fill="currentColor"/>
<path d="M8.00419 4.61922V8.61922M14.6709 7.95255C14.6709 11.6345 11.6861 14.6192 8.00419 14.6192C4.32229 14.6192 1.33752 11.6345 1.33752 7.95255C1.33752 4.27066 4.32229 1.28589 8.00419 1.28589C11.6861 1.28589 14.6709 4.27066 14.6709 7.95255Z" stroke="currentColor" stroke-width="1.28" stroke-linecap="round"/>
</g>
<defs>
<clipPath id="clip0_984_4923">
<rect width="16" height="16" fill="currentColor" transform="translate(0.00427246 0.00585938)"/>
</clipPath>
</defs>
</svg>
