<svg width="112" height="16" viewBox="0 0 112 16" fill="none" xmlns="http://www.w3.org/2000/svg">
<path d="M0.9375 15V0.454545H4.88636V11.8182H10.767V15H0.9375ZM25.8878 7.72727C25.8878 9.34659 25.5729 10.7126 24.9432 11.8253C24.3134 12.9332 23.4635 13.7737 22.3935 14.3466C21.3234 14.9148 20.1302 15.1989 18.8139 15.1989C17.4882 15.1989 16.2902 14.9124 15.2202 14.3395C14.1548 13.7618 13.3073 12.919 12.6776 11.8111C12.0526 10.6984 11.7401 9.33712 11.7401 7.72727C11.7401 6.10795 12.0526 4.74432 12.6776 3.63636C13.3073 2.52367 14.1548 1.68324 15.2202 1.11506C16.2902 0.54214 17.4882 0.255681 18.8139 0.255681C20.1302 0.255681 21.3234 0.54214 22.3935 1.11506C23.4635 1.68324 24.3134 2.52367 24.9432 3.63636C25.5729 4.74432 25.8878 6.10795 25.8878 7.72727ZM21.8253 7.72727C21.8253 6.85606 21.7093 6.12216 21.4773 5.52557C21.25 4.92424 20.9115 4.4697 20.4616 4.16193C20.0166 3.84943 19.4673 3.69318 18.8139 3.69318C18.1605 3.69318 17.6089 3.84943 17.1591 4.16193C16.714 4.4697 16.3755 4.92424 16.1435 5.52557C15.9162 6.12216 15.8026 6.85606 15.8026 7.72727C15.8026 8.59848 15.9162 9.33475 16.1435 9.93608C16.3755 10.5327 16.714 10.9872 17.1591 11.2997C17.6089 11.6075 18.1605 11.7614 18.8139 11.7614C19.4673 11.7614 20.0166 11.6075 20.4616 11.2997C20.9115 10.9872 21.25 10.5327 21.4773 9.93608C21.7093 9.33475 21.8253 8.59848 21.8253 7.72727ZM37.1609 5.25568C37.0993 5.00473 37.0022 4.78456 36.8697 4.59517C36.7371 4.40104 36.5714 4.23769 36.3725 4.10511C36.1784 3.9678 35.9511 3.866 35.6907 3.79972C35.435 3.72869 35.1533 3.69318 34.8455 3.69318C34.1826 3.69318 33.6168 3.8518 33.1481 4.16903C32.6841 4.48627 32.329 4.94318 32.0827 5.53977C31.8413 6.13636 31.7205 6.85606 31.7205 7.69886C31.7205 8.55114 31.8365 9.2803 32.0685 9.88636C32.3005 10.4924 32.6462 10.9564 33.1055 11.2784C33.5647 11.6004 34.1353 11.7614 34.8171 11.7614C35.4184 11.7614 35.918 11.6738 36.3157 11.4986C36.7182 11.3234 37.0188 11.0748 37.2177 10.7528C37.4165 10.4309 37.516 10.0521 37.516 9.61648L38.1978 9.6875H34.8739V6.875H41.3228V8.89205C41.3228 10.2178 41.0411 11.3518 40.4776 12.294C39.9189 13.2315 39.1471 13.9512 38.1623 14.4531C37.1822 14.9503 36.0576 15.1989 34.7887 15.1989C33.373 15.1989 32.1301 14.8982 31.06 14.2969C29.9899 13.6955 29.1542 12.8385 28.5529 11.7259C27.9563 10.6132 27.658 9.28977 27.658 7.75568C27.658 6.55303 27.8403 5.48769 28.2049 4.55966C28.5742 3.63163 29.0856 2.84801 29.739 2.20881C30.3924 1.56487 31.1476 1.07955 32.0046 0.75284C32.8616 0.421401 33.7802 0.255681 34.7603 0.255681C35.622 0.255681 36.4222 0.378788 37.1609 0.625C37.9042 0.866477 38.56 1.21212 39.1282 1.66193C39.7011 2.10701 40.1628 2.63494 40.5131 3.24574C40.8635 3.85653 41.0766 4.52651 41.1523 5.25568H37.1609ZM57.255 7.72727C57.255 9.34659 56.9401 10.7126 56.3104 11.8253C55.6806 12.9332 54.8307 13.7737 53.7607 14.3466C52.6906 14.9148 51.4974 15.1989 50.1811 15.1989C48.8554 15.1989 47.6574 14.9124 46.5874 14.3395C45.522 13.7618 44.6745 12.919 44.0447 11.8111C43.4197 10.6984 43.1072 9.33712 43.1072 7.72727C43.1072 6.10795 43.4197 4.74432 44.0447 3.63636C44.6745 2.52367 45.522 1.68324 46.5874 1.11506C47.6574 0.54214 48.8554 0.255681 50.1811 0.255681C51.4974 0.255681 52.6906 0.54214 53.7607 1.11506C54.8307 1.68324 55.6806 2.52367 56.3104 3.63636C56.9401 4.74432 57.255 6.10795 57.255 7.72727ZM53.1925 7.72727C53.1925 6.85606 53.0765 6.12216 52.8445 5.52557C52.6172 4.92424 52.2786 4.4697 51.8288 4.16193C51.3838 3.84943 50.8345 3.69318 50.1811 3.69318C49.5277 3.69318 48.9761 3.84943 48.5263 4.16193C48.0812 4.4697 47.7427 4.92424 47.5107 5.52557C47.2834 6.12216 47.1697 6.85606 47.1697 7.72727C47.1697 8.59848 47.2834 9.33475 47.5107 9.93608C47.7427 10.5327 48.0812 10.9872 48.5263 11.2997C48.9761 11.6075 49.5277 11.7614 50.1811 11.7614C50.8345 11.7614 51.3838 11.6075 51.8288 11.2997C52.2786 10.9872 52.6172 10.5327 52.8445 9.93608C53.0765 9.33475 53.1925 8.59848 53.1925 7.72727ZM58.0007 3.63636V0.454545H70.6428V3.63636H66.2678V15H62.3757V3.63636H58.0007ZM71.5323 0.454545H75.9357L78.7766 6.36364H78.8903L81.7312 0.454545H86.1346L80.7937 10.4261V15H76.8732V10.4261L71.5323 0.454545ZM87.4219 15V0.454545H93.7003C94.7798 0.454545 95.7244 0.667613 96.5341 1.09375C97.3438 1.51989 97.9735 2.11884 98.4233 2.89062C98.8731 3.66241 99.098 4.56439 99.098 5.59659C99.098 6.63826 98.866 7.54025 98.402 8.30256C97.9427 9.06487 97.2964 9.65199 96.4631 10.0639C95.6345 10.4759 94.6662 10.6818 93.5582 10.6818H89.8082V7.61364H92.7628C93.2268 7.61364 93.6222 7.53314 93.9489 7.37216C94.2803 7.20644 94.5336 6.97206 94.7088 6.66903C94.8887 6.366 94.9787 6.00852 94.9787 5.59659C94.9787 5.17992 94.8887 4.82481 94.7088 4.53125C94.5336 4.23295 94.2803 4.00568 93.9489 3.84943C93.6222 3.68845 93.2268 3.60795 92.7628 3.60795H91.3707V15H87.4219ZM100.547 15V0.454545H111.03V3.63636H104.496V6.13636H110.49V9.31818H104.496V11.8182H111.001V15H100.547Z" fill="white"/>
</svg>
