<svg width="40" height="40" viewBox="0 0 40 40" fill="none" xmlns="http://www.w3.org/2000/svg">
<path d="M17 31.85V8.15C17 5.9 16.1059 5 13.8471 5H8.15294C5.89412 5 5 5.9 5 8.15V31.85C5 34.1 5.89412 35 8.15294 35H13.8471C16.1059 35 17 34.1 17 31.85Z" stroke="currentColor" stroke-width="2" stroke-linecap="round" stroke-linejoin="round"/>
<path d="M35 31.85V8.15C35 5.9 34.1059 5 31.8471 5H26.1529C23.9098 5 23 5.9 23 8.15V31.85C23 34.1 23.8941 35 26.1529 35H31.8471C34.1059 35 35 34.1 35 31.85Z" stroke="currentColor" stroke-width="2" stroke-linecap="round" stroke-linejoin="round"/>
</svg>
