<?xml version="1.0" encoding="utf-8"?><svg width="112" height="16" fill="none" xmlns="http://www.w3.org/2000/svg" viewBox="0 0 112 16"><path d="M.938 15V.455h3.948v11.363h5.881V15H.937zm24.95-7.273c0 1.62-.315 2.986-.945 4.098-.63 1.108-1.48 1.949-2.55 2.522-1.07.568-2.263.852-3.58.852-1.325 0-2.523-.287-3.593-.86-1.065-.577-1.913-1.42-2.542-2.528-.625-1.113-.938-2.474-.938-4.084 0-1.62.313-2.983.938-4.09.63-1.113 1.477-1.954 2.542-2.522 1.07-.573 2.268-.86 3.594-.86 1.316 0 2.51.287 3.58.86 1.07.568 1.92 1.409 2.55 2.521.629 1.108.944 2.472.944 4.091zm-4.063 0c0-.87-.116-1.605-.348-2.201-.227-.602-.566-1.056-1.015-1.364-.445-.313-.995-.469-1.648-.469-.654 0-1.205.156-1.655.469-.445.308-.784.762-1.015 1.364-.228.596-.341 1.33-.341 2.201s.113 1.608.34 2.21c.232.596.571 1.05 1.016 1.363.45.307 1.002.461 1.655.461s1.203-.153 1.648-.461c.45-.313.788-.767 1.015-1.364.232-.601.348-1.338.348-2.209zm15.336-2.471a1.951 1.951 0 00-.291-.66 1.814 1.814 0 00-.497-.49 2.039 2.039 0 00-.682-.306 3.152 3.152 0 00-.846-.107c-.662 0-1.228.159-1.697.476-.464.317-.819.774-1.065 1.37-.242.597-.362 1.317-.362 2.16 0 .852.116 1.581.348 2.187.231.606.577 1.07 1.036 1.392.46.322 1.03.483 1.712.483.601 0 1.101-.087 1.499-.262.402-.176.703-.424.902-.746.198-.322.298-.7.298-1.137l.682.072h-3.324V6.874h6.449v2.017c0 1.326-.282 2.46-.845 3.402a5.598 5.598 0 01-2.316 2.16c-.98.496-2.104.745-3.373.745-1.416 0-2.659-.3-3.729-.902-1.07-.602-1.906-1.459-2.507-2.571-.597-1.113-.895-2.436-.895-3.97 0-1.203.182-2.268.547-3.196.37-.928.88-1.712 1.534-2.351A6.484 6.484 0 0132.005.753 7.573 7.573 0 0134.76.256c.862 0 1.662.123 2.4.369.744.241 1.4.587 1.968 1.037a5.385 5.385 0 011.385 1.584c.35.61.564 1.28.64 2.01H37.16zm20.094 2.471c0 1.62-.315 2.986-.945 4.098-.63 1.108-1.48 1.949-2.55 2.522-1.07.568-2.263.852-3.579.852-1.326 0-2.524-.287-3.594-.86-1.065-.577-1.913-1.42-2.542-2.528-.625-1.113-.938-2.474-.938-4.084 0-1.62.313-2.983.938-4.09.63-1.113 1.477-1.954 2.542-2.522 1.07-.573 2.268-.86 3.594-.86 1.316 0 2.51.287 3.58.86 1.07.568 1.92 1.409 2.55 2.521.63 1.108.944 2.472.944 4.091zm-4.063 0c0-.87-.115-1.605-.348-2.201-.227-.602-.565-1.056-1.015-1.364-.445-.313-.995-.469-1.648-.469-.653 0-1.205.156-1.655.469-.445.308-.783.762-1.015 1.364-.228.596-.341 1.33-.341 2.201s.113 1.608.34 2.21c.233.596.571 1.05 1.016 1.363.45.307 1.002.461 1.655.461.654 0 1.203-.153 1.648-.461.45-.313.788-.767 1.015-1.364.233-.601.349-1.338.349-2.209zm4.809-4.09V.454h12.642v3.181h-4.375V15h-3.892V3.636H58zM71.532.454h4.404l2.84 5.909h.114l2.841-5.91h4.404l-5.341 9.972V15h-3.92v-4.574L71.531.455zM87.422 15V.455H93.7c1.08 0 2.024.213 2.834.639a4.639 4.639 0 011.89 1.797c.45.771.674 1.673.674 2.706 0 1.041-.232 1.943-.696 2.706a4.573 4.573 0 01-1.939 1.76c-.828.413-1.797.619-2.905.619h-3.75V7.614h2.955c.464 0 .86-.08 1.186-.242.331-.166.585-.4.76-.703.18-.303.27-.66.27-1.072 0-.417-.09-.772-.27-1.066a1.693 1.693 0 00-.76-.682c-.327-.16-.722-.241-1.186-.241H91.37V15h-3.95zm13.125 0V.455h10.483v3.181h-6.534v2.5h5.994v3.182h-5.994v2.5h6.505V15h-10.454z" fill="#fff"/></svg>