<?xml version="1.0" encoding="utf-8"?><svg viewBox="0 0 30 30" xmlns="http://www.w3.org/2000/svg" xmlns:xlink="http://www.w3.org/1999/xlink"><style>:root>svg{display:none}:root>svg:target{display:block}</style><svg fill="none" viewBox="0 0 24 24" id="card_arrow" xmlns="http://www.w3.org/2000/svg"><path d="M10.268 17.232l5-5-5-5" stroke="currentColor" stroke-width="2" stroke-linecap="round" stroke-linejoin="round"/></svg><svg fill="none" viewBox="0 0 24 24" id="clip" xmlns="http://www.w3.org/2000/svg"><path fill-rule="evenodd" clip-rule="evenodd" d="M16.987 7.013a2.689 2.689 0 00-3.802 0L5.58 14.617a1.344 1.344 0 11-1.901-1.9l7.605-7.606a5.377 5.377 0 117.604 7.605l-7.13 7.13a3.36 3.36 0 01-4.752-4.753l7.13-7.13a1.344 1.344 0 011.9 1.901l-7.129 7.13a.672.672 0 00.95.95l7.13-7.129a2.689 2.689 0 000-3.802z" fill="currentColor"/></svg><svg fill="none" viewBox="0 0 24 24" id="close" xmlns="http://www.w3.org/2000/svg"><path d="M6 18L18 6M18 18L6 6" stroke="currentColor" stroke-width="2" stroke-linecap="round" stroke-linejoin="round"/></svg><svg fill="none" viewBox="0 0 5 5" id="drop_down_arrow" xmlns="http://www.w3.org/2000/svg"><path d="M3.06 3.753l1.6-2.133A.7.7 0 004.1.5H.9a.7.7 0 00-.56 1.12l1.6 2.133a.7.7 0 001.12 0z" fill="#D1D1D1"/></svg><svg fill="none" viewBox="0 0 24 24" id="link_arrow" xmlns="http://www.w3.org/2000/svg"><path d="M13 17l5-5-5-5M18 12H6" stroke="currentColor" stroke-width="2" stroke-linecap="round" stroke-linejoin="round"/></svg><svg fill="none" viewBox="0 0 24 24" id="link_arrow_slanted" xmlns="http://www.w3.org/2000/svg"><path d="M16.243 14.829V7.758H9.172M16.243 7.757l-8.486 8.485" stroke="currentColor" stroke-width="2" stroke-linecap="round" stroke-linejoin="round"/></svg><svg fill="none" viewBox="0 0 24 24" id="link_long_arrow" xmlns="http://www.w3.org/2000/svg"><path d="M13 17l5-5-5-5M18 12H6" stroke="currentColor" stroke-width="2" stroke-linecap="round" stroke-linejoin="round"/></svg><svg fill="none" viewBox="0 0 16 16" id="search" xmlns="http://www.w3.org/2000/svg"><path fill-rule="evenodd" clip-rule="evenodd" d="M7.5 0a7.5 7.5 0 104.55 13.463l2.243 2.244a1 1 0 001.414-1.414l-2.244-2.244A7.5 7.5 0 007.5 0zM2 7.5a5.5 5.5 0 1111 0 5.5 5.5 0 01-11 0z" fill="currentColor"/></svg><svg fill="none" viewBox="0 0 21 19" id="up_arrow" xmlns="http://www.w3.org/2000/svg"><path d="M10.433 2l-8.957 8.957M10.433 2l8.956 8.957M10.433 2v16.028" stroke="currentColor" stroke-width="2"/></svg><svg fill="none" viewBox="0 0 30 30" id="uslugi_btn" xmlns="http://www.w3.org/2000/svg"><rect x="6" y="6" width="7" height="7" rx="1.5" stroke="currentColor" stroke-width="2"/><rect x="17" y="6" width="7" height="7" rx="1.5" stroke="currentColor" stroke-width="2"/><rect x="6" y="17" width="7" height="7" rx="1.5" stroke="currentColor" stroke-width="2"/><rect x="17" y="17" width="7" height="7" rx="1.5" stroke="currentColor" stroke-width="2"/></svg></svg>