<?xml version="1.0" encoding="utf-8"?><svg viewBox="0 0 800 800" xmlns="http://www.w3.org/2000/svg" xmlns:xlink="http://www.w3.org/1999/xlink"><style>:root>svg{display:none}:root>svg:target{display:block}</style><svg fill="none" viewBox="0 0 24 24" id="card_arrow" xmlns="http://www.w3.org/2000/svg"><path d="M10.268 17.232l5-5-5-5" stroke="currentColor" stroke-width="2" stroke-linecap="round" stroke-linejoin="round"/></svg><svg fill="none" viewBox="0 0 24 24" id="clip" xmlns="http://www.w3.org/2000/svg"><path fill-rule="evenodd" clip-rule="evenodd" d="M16.987 7.013a2.689 2.689 0 00-3.802 0L5.58 14.617a1.344 1.344 0 11-1.901-1.9l7.605-7.606a5.377 5.377 0 117.604 7.605l-7.13 7.13a3.36 3.36 0 01-4.752-4.753l7.13-7.13a1.344 1.344 0 011.9 1.901l-7.129 7.13a.672.672 0 00.95.95l7.13-7.129a2.689 2.689 0 000-3.802z" fill="currentColor"/></svg><svg fill="none" viewBox="0 0 24 24" id="close" xmlns="http://www.w3.org/2000/svg"><path d="M6 18L18 6M18 18L6 6" stroke="currentColor" stroke-width="2" stroke-linecap="round" stroke-linejoin="round"/></svg><svg fill="none" viewBox="0 0 24 24" id="download" xmlns="http://www.w3.org/2000/svg"><path d="M19 14v3.333c0 .442-.164.866-.456 1.179a1.505 1.505 0 01-1.1.488H6.556c-.413 0-.809-.176-1.1-.488A1.729 1.729 0 015 17.333V14M8 10l4 4 4-4M12 14V5" stroke="currentColor" stroke-width="2" stroke-linecap="round" stroke-linejoin="round"/></svg><svg fill="none" viewBox="0 0 5 5" id="drop_down_arrow" xmlns="http://www.w3.org/2000/svg"><path d="M3.06 3.753l1.6-2.133A.7.7 0 004.1.5H.9a.7.7 0 00-.56 1.12l1.6 2.133a.7.7 0 001.12 0z" fill="#D1D1D1"/></svg><svg fill="none" viewBox="0 0 16 16" id="info" xmlns="http://www.w3.org/2000/svg"><g clip-path="url(#fclip0_984_4923)"><path d="M8.746 10.656a.704.704 0 11-1.408 0 .704.704 0 011.408 0z" fill="currentColor"/><path d="M8.004 4.62v4m6.667-.667a6.667 6.667 0 11-13.333 0 6.667 6.667 0 0113.333 0z" stroke="currentColor" stroke-width="1.28" stroke-linecap="round"/></g><defs><clipPath id="fclip0_984_4923"><path fill="currentColor" transform="translate(.004 .006)" d="M0 0h16v16H0z"/></clipPath></defs></svg><svg fill="none" viewBox="0 0 24 24" id="link_arrow" xmlns="http://www.w3.org/2000/svg"><path d="M13 17l5-5-5-5M18 12H6" stroke="currentColor" stroke-width="2" stroke-linecap="round" stroke-linejoin="round"/></svg><svg fill="none" viewBox="0 0 24 24" id="link_arrow_slanted" xmlns="http://www.w3.org/2000/svg"><path d="M16.243 14.829V7.758H9.172M16.243 7.757l-8.486 8.485" stroke="currentColor" stroke-width="2" stroke-linecap="round" stroke-linejoin="round"/></svg><svg fill="none" viewBox="0 0 24 24" id="link_long_arrow" xmlns="http://www.w3.org/2000/svg"><path d="M13 17l5-5-5-5M18 12H6" stroke="currentColor" stroke-width="2" stroke-linecap="round" stroke-linejoin="round"/></svg><svg fill="none" viewBox="0 0 10 2" id="minus" xmlns="http://www.w3.org/2000/svg"><path fill="#07171D" d="M0 0h10v2H0z"/></svg><svg viewBox="0 0 19 14" fill="none" id="mobile_menu" xmlns="http://www.w3.org/2000/svg"><path d="M1 1h18M1 7h18M1 13h18" stroke="currentColor" stroke-width="2" stroke-linecap="round"/></svg><svg fill="none" viewBox="0 0 40 40" id="pause" xmlns="http://www.w3.org/2000/svg"><path d="M17 31.85V8.15C17 5.9 16.106 5 13.847 5H8.153C5.894 5 5 5.9 5 8.15v23.7C5 34.1 5.894 35 8.153 35h5.694C16.106 35 17 34.1 17 31.85zM35 31.85V8.15C35 5.9 34.106 5 31.847 5h-5.694C23.91 5 23 5.9 23 8.15v23.7c0 2.25.894 3.15 3.153 3.15h5.694C34.106 35 35 34.1 35 31.85z" stroke="currentColor" stroke-width="2" stroke-linecap="round" stroke-linejoin="round"/></svg><svg fill="none" viewBox="0 0 40 40" id="play" xmlns="http://www.w3.org/2000/svg"><path d="M6 9.57v20.862c0 4.273 4.608 6.954 8.286 4.818l8.978-5.21 8.978-5.232c3.677-2.136 3.677-7.477 0-9.613l-8.978-5.232-8.978-5.21C10.608 2.617 6 5.276 6 9.571z" stroke="currentColor" stroke-width="2" stroke-linecap="round" stroke-linejoin="round"/></svg><svg fill="none" viewBox="0 0 10 10" id="plus" xmlns="http://www.w3.org/2000/svg"><path d="M3.864 9.892V8.048 3.831 2.164.321h1.883v9.571H3.864zM.138 6.028V4.185H9.473v1.843H.138z" fill="#07171D"/></svg><svg fill="none" viewBox="0 0 24 24" id="s-minus" xmlns="http://www.w3.org/2000/svg"><path d="M19.2 12H4.8" stroke="currentColor" stroke-width="2" stroke-linecap="round"/></svg><svg fill="none" viewBox="0 0 24 24" id="s-plus" xmlns="http://www.w3.org/2000/svg"><path d="M12 4.8v14.4M19.2 12H4.8" stroke="currentColor" stroke-width="2" stroke-linecap="round"/></svg><svg fill="none" viewBox="0 0 16 16" id="search" xmlns="http://www.w3.org/2000/svg"><path fill-rule="evenodd" clip-rule="evenodd" d="M7.5 0a7.5 7.5 0 104.55 13.463l2.243 2.244a1 1 0 001.414-1.414l-2.244-2.244A7.5 7.5 0 007.5 0zM2 7.5a5.5 5.5 0 1111 0 5.5 5.5 0 01-11 0z" fill="currentColor"/></svg><svg fill="none" viewBox="0 0 10 16" id="slider_arrow" xmlns="http://www.w3.org/2000/svg"><path d="M1 15l8-7-8-7" stroke="currentColor" stroke-width="2" stroke-linecap="round" stroke-linejoin="round"/></svg><svg fill="none" viewBox="0 0 48 48" id="success" xmlns="http://www.w3.org/2000/svg"><path d="M0 0h48v48H0z"/><path d="M14 24l1.25 1.25M44 14L24 34l-1.25-1.25M4 24l10 10 20-20" stroke="currentColor" stroke-width="4" stroke-linecap="round" stroke-linejoin="round"/></svg><svg fill="#40B3E0" viewBox="0 0 24 24" id="telegram" xmlns="http://www.w3.org/2000/svg"><path d="M19.2 4.4L2.9 10.7c-1.1.4-1.1 1.1-.2 1.3l4.1 1.3 1.6 4.8c.2.5.1.7.6.7.4 0 .6-.2.8-.4l2-2 4.2 3.1c.8.4 1.3.2 1.5-.7l2.8-13.1c.3-1.1-.4-1.7-1.1-1.3zm-2.1 3l-7.8 7.1-.3 3.3L7.4 13l9.2-5.8c.4-.3.8-.1.5.2z"/><path fill="none" d="M0 0h24v24H0z"/></svg><svg fill="none" viewBox="0 0 21 19" id="up_arrow" xmlns="http://www.w3.org/2000/svg"><path d="M10.433 2l-8.957 8.957M10.433 2l8.956 8.957M10.433 2v16.028" stroke="currentColor" stroke-width="2"/></svg><svg fill="none" viewBox="0 0 30 30" id="uslugi_btn" xmlns="http://www.w3.org/2000/svg"><rect x="6" y="6" width="7" height="7" rx="1.5" stroke="currentColor" stroke-width="2"/><rect x="17" y="6" width="7" height="7" rx="1.5" stroke="currentColor" stroke-width="2"/><rect x="6" y="17" width="7" height="7" rx="1.5" stroke="currentColor" stroke-width="2"/><rect x="17" y="17" width="7" height="7" rx="1.5" stroke="currentColor" stroke-width="2"/></svg><svg fill="none" viewBox="0 0 32 32" id="viber" xmlns="http://www.w3.org/2000/svg"><path fill-rule="evenodd" clip-rule="evenodd" d="M30 15.379C30 6.207 26.77 2 16 2S2 6.207 2 15.379c0 6.527 1.636 10.54 6.462 12.31v3.088c0 1.137 1.426 1.656 2.164.789l2.49-2.925c.895.078 1.855.116 2.884.116 10.77 0 14-4.207 14-13.379zM13.711 26.532c.714.056 1.476.084 2.289.084 9.112 0 11.846-3.534 11.846-11.237C27.846 7.674 25.112 4.14 16 4.14S4.154 7.674 4.154 15.379c0 5.445 1.366 8.807 5.384 10.31v4.575c0 .399.5.58.76.276l3.413-4.008z" fill="#BFC8D0"/><path d="M16 25.855c-.823 0-1.595-.029-2.319-.087l-3.457 4.077a.437.437 0 01-.77-.281v-4.652C5.385 23.383 4 19.965 4 14.427 4 6.593 6.77 3 16 3s12 3.593 12 11.427-2.77 11.428-12 11.428z" fill="#9179EE"/><path fill-rule="evenodd" clip-rule="evenodd" d="M30 14.379C30 5.207 26.77 1 16 1S2 5.207 2 14.379c0 6.527 1.636 10.54 6.462 12.31v3.088c0 1.137 1.426 1.656 2.164.789l2.49-2.925c.895.078 1.855.116 2.884.116 10.77 0 14-4.207 14-13.379zM13.711 25.532c.714.056 1.476.084 2.289.084 9.112 0 11.846-3.534 11.846-11.237C27.846 6.674 25.112 3.14 16 3.14S4.154 6.674 4.154 14.379c0 5.445 1.366 8.807 5.384 10.31v4.575c0 .399.5.58.76.276l3.413-4.008z" fill="#fff"/><path d="M11.543 12.134l-.04.023-.036.03a1.362 1.362 0 00-.328 1.633c.302.646.977 1.967 2.162 2.963 1.158.973 2.396 1.496 3.208 1.668l.051.01h.047l.015.003c.02.002.043.006.08.013l.085-.493-.086.493.02.003c.25.044.85.15 1.352-.35.322-.322.617-.657.744-.807a.776.776 0 01.746-.126c.695.235 1.52.765 1.92 1.034.31.208 1.01.71 1.325.937h0c.026.02.088.081.121.167.027.07.041.164-.023.3-.118.255-.48.739-.968 1.163-.498.431-1.016.702-1.43.702h-.005a2.557 2.557 0 01-.224-.043 9.107 9.107 0 01-.612-.164 18.71 18.71 0 01-1.964-.726c-1.566-.673-3.536-1.74-5.381-3.31-1.16-.988-2.256-2.353-3.108-3.632-.86-1.29-1.435-2.432-1.592-2.96l-.01-.036-.017-.035a1.173 1.173 0 01-.095-.458.795.795 0 01.175-.53c.42-.503.864-.997 1.845-1.472a.957.957 0 01.376-.086c.144-.002.22.034.25.06.375.33.956.91 1.348 1.407a26.297 26.297 0 01.912 1.238 4.39 4.39 0 01.106.167c.002.006.01.03.017.074a.862.862 0 01.006.195.504.504 0 01-.146.342c-.293.269-.69.517-.846.603zm4.734-5.618s0 0 0 0a.065.065 0 01.046-.016c3.991 0 7.175 3.038 7.177 6.723l-.003.004a.066.066 0 01-.045.015.066.066 0 01-.046-.015.039.039 0 01-.003-.004c-.001-3.724-3.2-6.69-7.08-6.69a.065.065 0 01-.046-.017zm0 4.13s0 0 0 0v-.002a.065.065 0 01.046-.015c1.569 0 2.788 1.19 2.79 2.594l-.003.004a.065.065 0 01-.046.015.066.066 0 01-.045-.015.039.039 0 01-.003-.004c-.001-1.443-1.236-2.562-2.693-2.562a.065.065 0 01-.046-.015zm0-2.065s0 0 0 0V8.58a.065.065 0 01.046-.015c2.78 0 4.982 2.113 4.983 4.658l-.003.004a.066.066 0 01-.045.015.065.065 0 01-.045-.015.028.028 0 01-.003-.004c-.002-2.583-2.218-4.626-4.887-4.626a.065.065 0 01-.046-.015z" fill="#fff" stroke="#fff" stroke-linecap="round"/></svg><svg fill="#07F" viewBox="0 0 20 20" id="vk" xmlns="http://www.w3.org/2000/svg"><path d="M17.802 12.298s1.617 1.597 2.017 2.336a.127.127 0 01.018.035c.163.273.203.487.123.645-.135.261-.592.392-.747.403h-2.858c-.199 0-.613-.052-1.117-.4-.385-.269-.768-.712-1.139-1.145-.554-.643-1.033-1.201-1.518-1.201a.548.548 0 00-.18.03c-.367.116-.833.639-.833 2.032 0 .436-.344.684-.585.684H9.674c-.446 0-2.768-.156-4.827-2.327C2.324 10.732.058 5.4.036 5.353c-.141-.345.155-.533.475-.533h2.886c.387 0 .513.234.601.444.102.241.48 1.205 1.1 2.288 1.004 1.762 1.621 2.479 2.114 2.479a.527.527 0 00.264-.07c.644-.354.524-2.654.494-3.128 0-.092-.001-1.027-.331-1.479-.236-.324-.638-.45-.881-.496.065-.094.203-.238.38-.323.441-.22 1.238-.252 2.029-.252h.439c.858.012 1.08.067 1.392.146.628.15.64.557.585 1.943-.016.396-.033.842-.033 1.367 0 .112-.005.237-.005.364-.019.711-.044 1.512.458 1.841a.41.41 0 00.217.062c.174 0 .695 0 2.108-2.425.62-1.071 1.1-2.334 1.133-2.429.028-.053.112-.202.214-.262a.479.479 0 01.236-.056h3.395c.37 0 .621.056.67.196.082.227-.016.92-1.566 3.016-.261.349-.49.651-.691.915-1.405 1.844-1.405 1.937.083 3.337z"/></svg><svg viewBox="0 0 20 20" id="whatsapp" xmlns="http://www.w3.org/2000/svg"><path d="M15.821 14.121c-.241.682-1.199 1.247-1.963 1.412-.523.11-1.205.199-3.503-.754C7.774 13.71 4.19 9.901 4.19 7.366c0-1.29.744-2.793 2.045-2.793.626 0 .764.012.97.507.241.582.829 2.016.899 2.163.289.603-.294.956-.717 1.482-.135.158-.288.329-.117.623.17.288.758 1.246 1.622 2.015 1.116.995 2.021 1.312 2.345 1.447.241.1.529.077.705-.111.223-.241.5-.641.782-1.036.199-.282.452-.317.717-.217.179.062 2.454 1.119 2.55 1.288.071.123.071.705-.17 1.387M10.002 0h-.005C4.484 0 0 4.485 0 10c0 2.187.705 4.215 1.904 5.86L.658 19.578l3.843-1.228A9.923 9.923 0 0010.002 20C15.515 20 20 15.515 20 10S15.515 0 10.002 0" fill="#1BD741" fill-rule="evenodd"/></svg><svg viewBox="0 0 461.001 461.001" id="youtube" xmlns="http://www.w3.org/2000/svg"><path d="M365.257 67.393H95.744C42.866 67.393 0 110.259 0 163.137v134.728c0 52.878 42.866 95.744 95.744 95.744h269.513c52.878 0 95.744-42.866 95.744-95.744V163.137c0-52.878-42.866-95.744-95.744-95.744zm-64.751 169.663l-126.06 60.123c-3.359 1.602-7.239-.847-7.239-4.568V168.607c0-3.774 3.982-6.22 7.348-4.514l126.06 63.881c3.748 1.899 3.683 7.274-.109 9.082z" fill="#f61c0d"/></svg></svg>